<?xml version="1.0" standalone="no"?>
<!DOCTYPE svg PUBLIC "-//W3C//DTD SVG 20010904//EN"
 "http://www.w3.org/TR/2001/REC-SVG-20010904/DTD/svg10.dtd">
<svg version="1.0" xmlns="http://www.w3.org/2000/svg"
 width="276.000000pt" height="276.000000pt" viewBox="0 0 276.000000 276.000000"
 preserveAspectRatio="xMidYMid meet">

<g transform="translate(0.000000,276.000000) scale(0.100000,-0.100000)"
fill="#000000" stroke="none">
<path d="M1610 2558 c-131 -59 -569 -269 -812 -390 -249 -123 -278 -140 -284
-165 -3 -16 -8 -36 -11 -45 -3 -15 36 -4 209 56 117 40 254 89 303 109 50 19
92 33 94 31 3 -3 -9 -19 -25 -37 -86 -92 -359 -435 -352 -442 2 -3 29 2 59 11
69 21 188 20 229 -1 41 -21 70 -71 70 -120 0 -49 -43 -128 -95 -173 -48 -42
-152 -94 -245 -121 -63 -19 -92 -36 -180 -105 -58 -45 -182 -140 -275 -211
-94 -71 -163 -126 -155 -123 8 4 159 73 335 153 176 81 375 171 442 200 156
69 238 121 309 198 74 80 106 150 111 247 4 64 1 82 -19 120 -33 64 -105 100
-200 100 l-68 0 247 288 c135 158 275 319 310 358 82 93 82 98 3 62z"/>
<path d="M1626 2377 c-19 -14 -19 -15 5 -29 54 -34 400 -232 614 -353 66 -37
121 -69 123 -70 2 -1 -86 -50 -195 -107 -109 -58 -257 -137 -330 -177 -72 -39
-136 -71 -142 -71 -6 0 -71 36 -144 80 -177 105 -167 103 -151 38 8 -29 14
-74 14 -99 l0 -48 85 -48 84 -48 1 -392 c0 -216 -2 -393 -5 -393 -5 0 -183
102 -462 265 l-153 89 0 54 c0 39 -3 53 -12 49 -7 -3 -33 -13 -58 -22 -63 -25
-70 -33 -70 -74 0 -70 1 -71 248 -211 130 -73 230 -136 222 -138 -79 -26 -723
-260 -815 -297 -66 -26 -145 -56 -175 -66 -69 -22 -38 -24 84 -4 240 38 612
96 711 109 248 35 435 58 520 66 l90 8 190 105 c105 58 291 161 415 230 l225
126 2 495 c2 476 2 496 -17 513 -23 22 -825 421 -860 428 -14 4 -33 0 -44 -8z
m787 -972 l6 -390 -92 -49 c-51 -27 -202 -109 -336 -183 -133 -74 -245 -132
-247 -130 -2 2 0 46 6 98 5 52 10 228 10 391 l0 297 178 97 c97 54 242 134
322 180 80 45 146 81 146 80 1 0 4 -176 7 -391z"/>
</g>
</svg>
